<svg width="20" height="20" viewBox="0 0 20 20" fill="none" xmlns="http://www.w3.org/2000/svg">
<g id="Categories=Playlist Add, Component=Additional Icons">
<path id="Vector" d="M10.8333 7.91671H2.49996C2.04163 7.91671 1.66663 8.29171 1.66663 8.75004C1.66663 9.20837 2.04163 9.58337 2.49996 9.58337H10.8333C11.2916 9.58337 11.6666 9.20837 11.6666 8.75004C11.6666 8.29171 11.2916 7.91671 10.8333 7.91671ZM10.8333 4.58337H2.49996C2.04163 4.58337 1.66663 4.95837 1.66663 5.41671C1.66663 5.87504 2.04163 6.25004 2.49996 6.25004H10.8333C11.2916 6.25004 11.6666 5.87504 11.6666 5.41671C11.6666 4.95837 11.2916 4.58337 10.8333 4.58337ZM15 11.25V8.75004C15 8.29171 14.625 7.91671 14.1666 7.91671C13.7083 7.91671 13.3333 8.29171 13.3333 8.75004V11.25H10.8333C10.375 11.25 9.99996 11.625 9.99996 12.0834C9.99996 12.5417 10.375 12.9167 10.8333 12.9167H13.3333V15.4167C13.3333 15.875 13.7083 16.25 14.1666 16.25C14.625 16.25 15 15.875 15 15.4167V12.9167H17.5C17.9583 12.9167 18.3333 12.5417 18.3333 12.0834C18.3333 11.625 17.9583 11.25 17.5 11.25H15ZM2.49996 12.9167H7.49996C7.95829 12.9167 8.33329 12.5417 8.33329 12.0834C8.33329 11.625 7.95829 11.25 7.49996 11.25H2.49996C2.04163 11.25 1.66663 11.625 1.66663 12.0834C1.66663 12.5417 2.04163 12.9167 2.49996 12.9167Z" fill="#212121"/>
</g>
</svg>
