<svg width="18" height="18" viewBox="0 0 18 18" fill="none" xmlns="http://www.w3.org/2000/svg">
<g id="Group">
<path id="Exclude" fill-rule="evenodd" clip-rule="evenodd" d="M5.38829 1.91663C3.27996 1.91663 1.91663 3.36079 1.91663 5.59663V12.4033C1.91663 14.6391 3.27996 16.0833 5.38829 16.0833H12.6125C14.7208 16.0833 16.0833 14.6391 16.0833 12.4033V5.59663C16.0833 3.36079 14.7208 1.91663 12.6125 1.91663H5.38829ZM12.6125 17.3333H5.38829C2.56413 17.3333 0.666626 15.3516 0.666626 12.4033V5.59663C0.666626 2.64829 2.56413 0.666626 5.38829 0.666626H12.6125C15.4366 0.666626 17.3333 2.64829 17.3333 5.59663V12.4033C17.3333 15.3516 15.4366 17.3333 12.6125 17.3333Z" fill="#212121"/>
<path id="Vector" fill-rule="evenodd" clip-rule="evenodd" d="M9 13.0298C8.655 13.0298 8.375 12.7498 8.375 12.4048V5.59485C8.375 5.24985 8.655 4.96985 9 4.96985C9.345 4.96985 9.625 5.24985 9.625 5.59485V12.4048C9.625 12.7498 9.345 13.0298 9 13.0298Z" fill="#212121"/>
<path id="Vector_2" fill-rule="evenodd" clip-rule="evenodd" d="M8.99996 13.0307C8.83412 13.0307 8.67412 12.9649 8.55746 12.8466L5.43412 9.70989C5.18996 9.46489 5.19162 9.06906 5.43579 8.82572C5.68079 8.58322 6.07579 8.58156 6.31912 8.82739L8.99996 11.5199L11.6808 8.82739C11.925 8.58156 12.32 8.58322 12.5641 8.82572C12.8083 9.06906 12.81 9.46489 12.5658 9.70989L9.44246 12.8466C9.32579 12.9649 9.16579 13.0307 8.99996 13.0307Z" fill="#212121"/>
</g>
</svg>
