<svg width="20" height="20" viewBox="0 0 20 20" fill="none" xmlns="http://www.w3.org/2000/svg">
<g id="Categories=Playlist Add, Component=Additional Icons">
<path id="Vector" d="M10.8334 7.91666H2.50002C2.04169 7.91666 1.66669 8.29166 1.66669 8.74999C1.66669 9.20833 2.04169 9.58333 2.50002 9.58333H10.8334C11.2917 9.58333 11.6667 9.20833 11.6667 8.74999C11.6667 8.29166 11.2917 7.91666 10.8334 7.91666ZM10.8334 4.58333H2.50002C2.04169 4.58333 1.66669 4.95833 1.66669 5.41666C1.66669 5.87499 2.04169 6.24999 2.50002 6.24999H10.8334C11.2917 6.24999 11.6667 5.87499 11.6667 5.41666C11.6667 4.95833 11.2917 4.58333 10.8334 4.58333ZM15 11.25V8.74999C15 8.29166 14.625 7.91666 14.1667 7.91666C13.7084 7.91666 13.3334 8.29166 13.3334 8.74999V11.25H10.8334C10.375 11.25 10 11.625 10 12.0833C10 12.5417 10.375 12.9167 10.8334 12.9167H13.3334V15.4167C13.3334 15.875 13.7084 16.25 14.1667 16.25C14.625 16.25 15 15.875 15 15.4167V12.9167H17.5C17.9584 12.9167 18.3334 12.5417 18.3334 12.0833C18.3334 11.625 17.9584 11.25 17.5 11.25H15ZM2.50002 12.9167H7.50002C7.95835 12.9167 8.33335 12.5417 8.33335 12.0833C8.33335 11.625 7.95835 11.25 7.50002 11.25H2.50002C2.04169 11.25 1.66669 11.625 1.66669 12.0833C1.66669 12.5417 2.04169 12.9167 2.50002 12.9167Z" fill="#212121"/>
</g>
</svg>
