<svg width="21" height="20" viewBox="0 0 21 20" fill="none" xmlns="http://www.w3.org/2000/svg">
<path fill-rule="evenodd" clip-rule="evenodd" d="M0.124878 10.0001C0.124878 4.48012 4.59488 0.00012207 10.1249 0.00012207C15.6449 0.00012207 20.1249 4.48012 20.1249 10.0001C20.1249 15.5301 15.6449 20.0001 10.1249 20.0001C4.59488 20.0001 0.124878 15.5301 0.124878 10.0001ZM12.3549 11.8301L13.9749 6.71012C14.0849 6.36012 13.7649 6.03012 13.4149 6.14012L8.29488 7.74012C8.08488 7.81012 7.91488 7.97012 7.85488 8.18012L6.25488 13.3101C6.14488 13.6501 6.47488 13.9801 6.81488 13.8701L11.9149 12.2701C12.1249 12.2101 12.2949 12.0401 12.3549 11.8301Z" fill="#9610FF"/>
</svg>
