<svg width="18" height="18" viewBox="0 0 18 18" fill="none" xmlns="http://www.w3.org/2000/svg">
<path fill-rule="evenodd" clip-rule="evenodd" d="M0.666626 12.4001V5.59175C0.666626 2.65008 2.55913 0.666748 5.38329 0.666748H12.6083C15.4333 0.666748 17.3333 2.65008 17.3333 5.59175V12.4001C17.3333 15.3501 15.4333 17.3334 12.6083 17.3334H5.38329C2.55913 17.3334 0.666626 15.3501 0.666626 12.4001ZM9.62496 10.8917V5.60008C9.62496 5.25008 9.34163 4.97508 8.99996 4.97508C8.64996 4.97508 8.37496 5.25008 8.37496 5.60008V10.8917L6.31663 8.82508C6.19996 8.70842 6.03329 8.64175 5.87496 8.64175C5.71746 8.64175 5.55829 8.70842 5.43329 8.82508C5.19163 9.06675 5.19163 9.46675 5.43329 9.70842L8.55829 12.8501C8.79163 13.0834 9.20829 13.0834 9.44163 12.8501L12.5666 9.70842C12.8083 9.46675 12.8083 9.06675 12.5666 8.82508C12.3166 8.58342 11.925 8.58342 11.675 8.82508L9.62496 10.8917Z" fill="#0ABE75"/>
</svg>
