<svg width="32" height="32" viewBox="0 0 32 32" fill="none" xmlns="http://www.w3.org/2000/svg">
<g id="Type=Logo Default, Component=Logo">
<g id="Vector">
<path fill-rule="evenodd" clip-rule="evenodd" d="M15.9999 2.66675C12.4653 2.66675 9.59992 5.44691 9.59992 8.8764V14.5904C9.59992 18.0199 12.4653 20.8001 15.9999 20.8001C18.8869 20.8001 21.3273 18.9454 22.1248 16.3972C22.0196 16.4679 21.912 16.5357 21.8023 16.6004C21.0792 17.027 20.2766 17.3113 19.4403 17.4369C18.6039 17.5625 17.7503 17.5271 16.9281 17.3327C16.1059 17.1382 15.3312 16.7885 14.6482 16.3036C14.2261 16.0038 13.844 15.6559 13.51 15.2682C13.1676 14.8708 13.3176 14.2882 13.7738 14.019C14.23 13.7499 14.8183 13.8998 15.1863 14.275C15.3709 14.4633 15.5729 14.6356 15.79 14.7898C16.2681 15.1293 16.8104 15.3741 17.3859 15.5102C17.9615 15.6463 18.559 15.6711 19.1445 15.5832C19.7299 15.4952 20.2917 15.2963 20.7979 14.9977C21.3041 14.699 21.7447 14.3066 22.0946 13.8428C22.2065 13.6944 22.3084 13.5396 22.3999 13.3794V8.87639C22.3999 5.4469 19.5345 2.66675 15.9999 2.66675ZM19.2149 9.08047C19.2149 10.0465 18.4078 10.8297 17.4121 10.8297C16.4165 10.8297 15.6093 10.0465 15.6093 9.08047C15.6093 8.11441 16.4165 7.33127 17.4121 7.33127C18.4078 7.33127 19.2149 8.11441 19.2149 9.08047Z" fill="url(#paint0_linear_209_5078)"/>
<path d="M24.2353 14.7547C24.2353 14.0908 24.7799 13.5542 25.4509 13.5542C26.122 13.5542 26.6666 14.0908 26.6666 14.7547C26.6666 20.1555 22.5261 24.6152 17.2162 25.2142V27.6307C17.2162 28.2934 16.6716 28.8312 16.0005 28.8312C15.3283 28.8312 14.7849 28.2934 14.7849 27.6307V25.2142C9.47374 24.6152 5.33325 20.1555 5.33325 14.7547C5.33325 14.0908 5.87786 13.5542 6.5489 13.5542C7.21993 13.5542 7.76454 14.0908 7.76454 14.7547C7.76454 19.2384 11.4589 22.8865 16.0005 22.8865C20.541 22.8865 24.2353 19.2384 24.2353 14.7547Z" fill="url(#paint1_linear_209_5078)"/>
</g>
</g>
<defs>
<linearGradient id="paint0_linear_209_5078" x1="26.6666" y1="28.8312" x2="0.604396" y2="22.6699" gradientUnits="userSpaceOnUse">
<stop stop-color="#9610FF"/>
<stop offset="1" stop-color="#AF48FF"/>
</linearGradient>
<linearGradient id="paint1_linear_209_5078" x1="26.6666" y1="28.8312" x2="0.604396" y2="22.6699" gradientUnits="userSpaceOnUse">
<stop stop-color="#9610FF"/>
<stop offset="1" stop-color="#AF48FF"/>
</linearGradient>
</defs>
</svg>
