<svg width="28" height="28" viewBox="0 0 28 28" fill="none" xmlns="http://www.w3.org/2000/svg">
<g id="Categories=History, Component=Additional Icons">
<path id="Vector" d="M16.0709 25.0833C14.9625 25.0833 13.8639 24.9036 12.775 24.5443C11.6862 24.1841 10.6848 23.6444 9.77087 22.9249C9.49865 22.711 9.35282 22.4341 9.33337 22.0943C9.31393 21.7536 9.42087 21.4471 9.65421 21.1749C9.84865 20.961 10.0968 20.8444 10.3985 20.8249C10.6995 20.8055 10.9667 20.893 11.2 21.0874C11.9 21.6319 12.6922 22.0449 13.5765 22.3264C14.4617 22.6087 15.3125 22.7499 16.1292 22.7499C18.3848 22.7499 20.3098 21.9527 21.9042 20.3583C23.4987 18.7638 24.2959 16.8388 24.2959 14.5833C24.2959 12.3277 23.4987 10.4027 21.9042 8.80825C20.3098 7.21381 18.3848 6.41659 16.1292 6.41659C13.8931 6.41659 11.9728 7.19903 10.3682 8.76392C8.76443 10.3296 7.96254 12.3471 7.96254 14.8166L9.30421 13.4749C9.5181 13.261 9.79032 13.1541 10.1209 13.1541C10.4514 13.1541 10.7237 13.261 10.9375 13.4749C11.1514 13.6888 11.2584 13.961 11.2584 14.2916C11.2584 14.6221 11.1514 14.8944 10.9375 15.1083L7.61254 18.4333C7.37921 18.6666 7.10699 18.7833 6.79587 18.7833C6.48476 18.7833 6.21254 18.6666 5.97921 18.4333L2.68337 15.1374C2.45004 14.9041 2.33337 14.6221 2.33337 14.2916C2.33337 13.961 2.45004 13.6888 2.68337 13.4749C2.91671 13.261 3.19865 13.1541 3.52921 13.1541C3.85976 13.1541 4.13199 13.2708 4.34587 13.5041L5.62921 14.8166C5.62921 13.2999 5.90143 11.8851 6.44587 10.5723C6.99032 9.26014 7.73893 8.12264 8.69171 7.15975C9.64448 6.19764 10.7579 5.44436 12.0319 4.89992C13.3051 4.35547 14.6709 4.08325 16.1292 4.08325C17.5681 4.08325 18.9245 4.36014 20.1985 4.91392C21.4718 5.46847 22.5848 6.22214 23.5375 7.17492C24.4903 8.1277 25.244 9.2407 25.7985 10.5139C26.3523 11.7879 26.6292 13.1444 26.6292 14.5833C26.6292 16.0221 26.3523 17.3786 25.7985 18.6526C25.244 19.9258 24.4903 21.0388 23.5375 21.9916C22.5848 22.9444 21.4667 23.698 20.1834 24.2526C18.9 24.8064 17.5292 25.0833 16.0709 25.0833ZM17.2959 14.1166L20.2125 17.0333C20.4264 17.2471 20.5334 17.5194 20.5334 17.8499C20.5334 18.1805 20.4264 18.4527 20.2125 18.6666C19.9987 18.8805 19.7264 18.9874 19.3959 18.9874C19.0653 18.9874 18.7931 18.8805 18.5792 18.6666L15.3125 15.3999C15.1959 15.2833 15.1084 15.1518 15.05 15.0056C14.9917 14.8601 14.9625 14.7096 14.9625 14.5541V9.91658C14.9625 9.58603 15.0745 9.30875 15.2985 9.08475C15.5218 8.86153 15.7987 8.74992 16.1292 8.74992C16.4598 8.74992 16.737 8.86153 16.961 9.08475C17.1843 9.30875 17.2959 9.58603 17.2959 9.91658V14.1166Z" fill="#212121"/>
</g>
</svg>
