<svg width="20" height="20" viewBox="0 0 20 20" fill="none" xmlns="http://www.w3.org/2000/svg">
<g id="Categories=Share Alt, Component=Additional Icons">
<path id="Vector" d="M15.0054 11.277C14.5131 11.2802 14.0276 11.3925 13.5838 11.6057C13.14 11.819 12.7489 12.1279 12.4388 12.5103L8.18877 10.552C8.38859 9.94007 8.38859 9.28049 8.18877 8.66862L12.4388 6.71028C12.9401 7.31526 13.6391 7.72368 14.4122 7.86348C15.1854 8.00328 15.9831 7.86547 16.6646 7.47437C17.346 7.08327 17.8674 6.46402 18.1367 5.7259C18.406 4.98779 18.406 4.17827 18.1365 3.44021C17.8671 2.70214 17.3456 2.08299 16.664 1.69201C15.9825 1.30103 15.1848 1.16336 14.4116 1.3033C13.6385 1.44325 12.9396 1.8518 12.4384 2.45686C11.9371 3.06193 11.6658 3.8246 11.6721 4.61028C11.6746 4.80881 11.6941 5.00676 11.7304 5.20195L7.33044 7.22695C6.86134 6.76827 6.26731 6.45821 5.62277 6.33564C4.97824 6.21307 4.31187 6.28342 3.70714 6.53789C3.10242 6.79237 2.58624 7.21963 2.22327 7.76617C1.8603 8.3127 1.66669 8.9542 1.66669 9.61028C1.66669 10.2664 1.8603 10.9079 2.22327 11.4544C2.58624 12.0009 3.10242 12.4282 3.70714 12.6827C4.31187 12.9371 4.97824 13.0075 5.62277 12.8849C6.26731 12.7624 6.86134 12.4523 7.33044 11.9936L11.7304 14.0186C11.6941 14.2138 11.6746 14.4118 11.6721 14.6103C11.6721 15.2696 11.8676 15.914 12.2339 16.4622C12.6001 17.0103 13.1207 17.4376 13.7298 17.6899C14.3389 17.9422 15.0091 18.0082 15.6557 17.8796C16.3023 17.751 16.8963 17.4335 17.3625 16.9673C17.8286 16.5011 18.1461 15.9072 18.2747 15.2606C18.4033 14.614 18.3373 13.9438 18.085 13.3347C17.8327 12.7256 17.4055 12.205 16.8573 11.8387C16.3092 11.4724 15.6647 11.277 15.0054 11.277ZM15.0054 2.94362C15.3351 2.94362 15.6573 3.04137 15.9314 3.2245C16.2055 3.40764 16.4191 3.66793 16.5452 3.97248C16.6714 4.27702 16.7044 4.61213 16.6401 4.93543C16.5758 5.25874 16.417 5.55571 16.1839 5.7888C15.9509 6.02188 15.6539 6.18062 15.3306 6.24493C15.0073 6.30924 14.6722 6.27623 14.3676 6.15008C14.0631 6.02394 13.8028 5.81032 13.6197 5.53623C13.4365 5.26215 13.3388 4.93992 13.3388 4.61028C13.3388 4.16826 13.5144 3.74433 13.8269 3.43177C14.1395 3.11921 14.5634 2.94362 15.0054 2.94362ZM5.00544 11.277C4.6758 11.277 4.35357 11.1792 4.07949 10.9961C3.8054 10.8129 3.59178 10.5526 3.46564 10.2481C3.33949 9.94355 3.30648 9.60844 3.37079 9.28513C3.4351 8.96183 3.59384 8.66486 3.82692 8.43177C4.06001 8.19869 4.35698 8.03995 4.68028 7.97564C5.00359 7.91133 5.3387 7.94434 5.64324 8.07048C5.94778 8.19663 6.20808 8.41025 6.39122 8.68433C6.57435 8.95842 6.6721 9.28065 6.6721 9.61028C6.6721 10.0523 6.49651 10.4762 6.18395 10.7888C5.87139 11.1014 5.44746 11.277 5.00544 11.277ZM15.0054 16.277C14.6758 16.277 14.3536 16.1792 14.0795 15.9961C13.8054 15.8129 13.5918 15.5526 13.4656 15.2481C13.3395 14.9435 13.3065 14.6084 13.3708 14.2851C13.4351 13.9618 13.5938 13.6649 13.8269 13.4318C14.06 13.1987 14.357 13.04 14.6803 12.9756C15.0036 12.9113 15.3387 12.9443 15.6432 13.0705C15.9478 13.1966 16.2081 13.4103 16.3912 13.6843C16.5744 13.9584 16.6721 14.2806 16.6721 14.6103C16.6721 15.0523 16.4965 15.4762 16.1839 15.7888C15.8714 16.1014 15.4475 16.277 15.0054 16.277Z" fill="#212121"/>
</g>
</svg>
