<svg width="20" height="20" viewBox="0 0 20 20" fill="none" xmlns="http://www.w3.org/2000/svg">
<g id="Categories=Internet, Component=Additional Icons">
<path id="Vector" d="M17.8085 7.59236C17.8085 7.59236 17.8085 7.59236 17.8085 7.55069C17.2213 5.94755 16.1559 4.56343 14.7564 3.58558C13.3569 2.60773 11.6908 2.08334 9.98349 2.08334C8.27619 2.08334 6.6101 2.60773 5.21058 3.58558C3.81106 4.56343 2.74565 5.94755 2.15848 7.55069C2.15848 7.55069 2.15848 7.55069 2.15848 7.59236C1.50275 9.40144 1.50275 11.3833 2.15848 13.1924C2.15848 13.1924 2.15848 13.1924 2.15848 13.234C2.74565 14.8372 3.81106 16.2213 5.21058 17.1991C6.6101 18.177 8.27619 18.7014 9.98349 18.7014C11.6908 18.7014 13.3569 18.177 14.7564 17.1991C16.1559 16.2213 17.2213 14.8372 17.8085 13.234C17.8085 13.234 17.8085 13.234 17.8085 13.1924C18.4642 11.3833 18.4642 9.40144 17.8085 7.59236ZM3.51682 12.059C3.22784 10.9667 3.22784 9.81801 3.51682 8.72569H5.06682C4.93351 9.83281 4.93351 10.9519 5.06682 12.059H3.51682ZM4.20015 13.7257H5.36682C5.56242 14.4689 5.84199 15.1874 6.20015 15.8674C5.3829 15.3106 4.69973 14.5791 4.20015 13.7257ZM5.36682 7.05903H4.20015C4.69254 6.20826 5.36698 5.47691 6.17515 4.91736C5.82561 5.5984 5.55444 6.31688 5.36682 7.05903ZM9.13348 16.809C8.10996 16.0579 7.39111 14.9634 7.10848 13.7257H9.13348V16.809ZM9.13348 12.059H6.75015C6.59464 10.9534 6.59464 9.83136 6.75015 8.72569H9.13348V12.059ZM9.13348 7.05903H7.10848C7.39111 5.82133 8.10996 4.72679 9.13348 3.97569V7.05903ZM15.7335 7.05903H14.5668C14.3712 6.31582 14.0916 5.59731 13.7335 4.91736C14.5507 5.47408 15.2339 6.20564 15.7335 7.05903ZM10.8002 3.97569C11.8237 4.72679 12.5425 5.82133 12.8252 7.05903H10.8002V3.97569ZM10.8002 16.809V13.7257H12.8252C12.5425 14.9634 11.8237 16.0579 10.8002 16.809ZM13.1835 12.059H10.8002V8.72569H13.1835C13.339 9.83136 13.339 10.9534 13.1835 12.059ZM13.7585 15.8674C14.1166 15.1874 14.3962 14.4689 14.5918 13.7257H15.7585C15.2589 14.5791 14.5757 15.3106 13.7585 15.8674ZM16.4168 12.059H14.8668C14.9346 11.5061 14.968 10.9494 14.9668 10.3924C14.9677 9.83528 14.9343 9.27867 14.8668 8.72569H16.4168C16.7058 9.81801 16.7058 10.9667 16.4168 12.059Z" fill="#212121"/>
</g>
</svg>
